<svg width="49" height="49" viewBox="0 0 49 49" fill="none" xmlns="http://www.w3.org/2000/svg">
<path d="M8.16663 38.7917V34.7083H12.25V20.4167C12.25 17.5924 13.1007 15.0913 14.802 12.9135C16.5034 10.7017 18.7152 9.25555 21.4375 8.57499V7.14583C21.4375 6.29513 21.7267 5.58055 22.3052 5.00208C22.9177 4.38958 23.6493 4.08333 24.5 4.08333C25.3507 4.08333 26.0652 4.38958 26.6437 5.00208C27.2562 5.58055 27.5625 6.29513 27.5625 7.14583V8.57499C30.2847 9.25555 32.4965 10.7017 34.1979 12.9135C35.8993 15.0913 36.75 17.5924 36.75 20.4167V34.7083H40.8333V38.7917H8.16663ZM24.5 44.9167C23.377 44.9167 22.4073 44.5253 21.5906 43.7427C20.8079 42.926 20.4166 41.9562 20.4166 40.8333H28.5833C28.5833 41.9562 28.175 42.926 27.3583 43.7427C26.5757 44.5253 25.6229 44.9167 24.5 44.9167ZM16.3333 34.7083H32.6666V20.4167C32.6666 18.1708 31.867 16.2483 30.2677 14.649C28.6684 13.0496 26.7458 12.25 24.5 12.25C22.2541 12.25 20.3316 13.0496 18.7323 14.649C17.1329 16.2483 16.3333 18.1708 16.3333 20.4167V34.7083Z" fill="#1C3077"/>
</svg>
